Coordinates
version=1
nRows=19
nColumns=24
inDegrees=yes

Units are S.I. units (second, meters, Newtons, ...)
Angles are in degrees.

endheader
time	pelvis_tilt	pelvis_list	pelvis_rotation	pelvis_tx	pelvis_ty	pelvis_tz	hip_flexion_r	hip_adduction_r	hip_rotation_r	knee_angle_r	ankle_angle_r	subtalar_angle_r	mtp_angle_r	hip_flexion_l	hip_adduction_l	hip_rotation_l	knee_angle_l	ankle_angle_l	subtalar_angle_l	mtp_angle_l	lumbar_extension	lumbar_bending	lumbar_rotation
      2.97000000	      3.78065935	     -5.88011232	     -3.19613259	      0.35546890	      1.02000218	      0.05042644	     -4.06850504	      7.56815709	      0.39601920	     -4.99398137	      7.83226920	      0.12772321	      7.22935697	     24.96946245	     -9.95359992	     -8.88882959	    -54.69353474	      6.37497818	     -2.13519548	     25.13738583	    -13.23787993	      7.78649141	      5.48232892
      2.97500000	      3.99823368	     -5.70396773	     -3.45881458	      0.36049470	      1.02039869	      0.05084114	     -4.70946417	      7.32424369	      0.56284022	     -4.84075997	      8.09983620	      0.37088827	      6.90349790	     24.75041328	     -9.77709287	     -9.03522969	    -53.24834638	      6.45252278	     -1.99979299	     24.95898304	    -13.46517737	      7.50254226	      5.70272899
      2.98000000	      4.21789011	     -5.52218023	     -3.72979047	      0.36555506	      1.02077392	      0.05126697	     -5.35285821	      7.06875879	      0.72501734	     -4.68535912	      8.36976623	      0.60493414	      6.56713548	     24.49490959	     -9.59800573	     -9.18965885	    -51.74868980	      6.50235170	     -1.86658216	     24.79292403	    -13.68923796	      7.20709852	      5.92573497
      2.98500000	      4.49382747	     -5.34144712	     -3.94861400	      0.37065577	      1.02119588	      0.05161663	     -6.06716262	      6.80974012	      0.82231231	     -4.50492883	      8.61548087	      0.80567197	      6.02312943	     24.15618794	     -9.39477616	     -9.29390605	    -50.19280750	      6.54367783	     -1.69194529	     24.58417200	    -13.96539135	      6.91555499	      6.08842595
      2.99000000	      4.69565205	     -5.18501263	     -4.22409176	      0.37574969	      1.02145388	      0.05204963	     -6.68380236	      6.57177425	      0.98339150	     -4.36258637	      8.89857185	      1.03363753	      5.58362646	     23.87279189	     -9.24801711	     -9.44372523	    -48.61842043	      6.55393931	     -1.55895342	     24.42850673	    -14.16382493	      6.64357635	      6.32604589
      2.99500000	      4.90330998	     -5.03210487	     -4.48475378	      0.38082699	      1.02169254	      0.05244408	     -7.30033713	      6.33154073	      1.13952913	     -4.22315836	      9.16731802	      1.25963270	      5.17153857	     23.56195619	     -9.09220446	     -9.56159534	    -46.99881390	      6.52203954	     -1.42430199	     24.29166705	    -14.37047650	      6.37677182	      6.51957845
      3.00000000	      5.04890614	     -4.90485837	     -4.77124903	      0.38589246	      1.02178622	      0.05284952	     -7.82777579	      6.11581547	      1.31462543	     -4.12874471	      9.47876327	      1.48404554	      4.91487141	     23.29987030	     -8.97341516	     -9.68625407	    -45.35644803	      6.44171304	     -1.35780394	     24.18421509	    -14.50779788	      6.14045039	      6.77634170
      3.00500000	      5.28013137	     -4.76346716	     -4.99410924	      0.39103382	      1.02197469	      0.05317857	     -8.48233261	      5.88111179	      1.44712146	     -3.96367659	      9.71938845	      1.63925493	      4.59642928	     22.91458509	     -8.81229031	     -9.77003319	    -43.65177780	      6.37144576	     -1.18462647	     24.08227022	    -14.72851933	      5.88837197	      6.93929028
      3.01000000	      5.48173276	     -4.65524351	     -5.22285642	      0.39616583	      1.02207768	      0.05350212	     -9.09307678	      5.67682219	      1.57829183	     -3.82155343	      9.94742222	      1.85404722	      4.22973794	     22.54420555	     -8.69124562	     -9.85462614	    -41.92622342	      6.25290270	     -1.04052078	     23.97179141	    -14.91908489	      5.67414370	      7.11899729
      3.01500000	      5.64113847	     -4.55050587	     -5.43992185	      0.40129145	      1.02206405	      0.05377413	     -9.65141716	      5.47840200	      1.70426437	     -3.68876197	     10.19905324	      2.00563900	      3.88026600	     22.20611954	     -8.56314325	     -9.89645151	    -40.17750654	      6.12241124	     -0.88133195	     23.87537309	    -15.06391044	      5.47289041	      7.28091616
      3.02000000	      5.79633361	     -4.47276751	     -5.64137947	      0.40642469	      1.02200487	      0.05401676	    -10.20499202	      5.30756227	      1.82116959	     -3.56088109	     10.44064606	      2.16628344	      3.51449146	     21.85435333	     -8.46082476	     -9.92663571	    -38.40276916	      5.97344190	     -0.69699520	     23.78436505	    -15.20422794	      5.30419505	      7.43414761
      3.02500000	      5.92905519	     -4.41905847	     -5.82031895	      0.41154862	      1.02186002	      0.05422510	    -10.73046077	      5.16517467	      1.92546309	     -3.44122613	     10.66553047	      2.30811410	      3.12567782	     21.51842588	     -8.38079876	     -9.93252442	    -36.61619965	      5.77878029	     -0.48691188	     23.69397012	    -15.32318702	      5.16720416	      7.55343294
      3.03000000	      6.05781494	     -4.38077901	     -5.98762406	      0.41667872	      1.02166230	      0.05438864	    -11.25354791	      5.03767172	      2.01812701	     -3.31914264	     10.89844656	      2.44690494	      2.72054632	     21.16947461	     -8.31081608	     -9.91927713	    -34.80855850	      5.57505797	     -0.25089121	     23.60780841	    -15.43950255	      5.05234824	      7.67243151
      3.03500000	      6.13194871	     -4.36628346	     -6.13281045	      0.42181307	      1.02133414	      0.05450202	    -11.71587695	      4.94261061	      2.10000751	     -3.20617563	     11.13490040	      2.57262124	      2.32706297	     20.87413090	     -8.26358303	     -9.87336275	    -32.99772678	      5.35760853	      0.00964762	     23.52810393	    -15.49601347	      4.97546442	      7.77589798
      3.04000000	      6.19669907	     -4.37411500	     -6.25184471	      0.42694726	      1.02093867	      0.05456662	    -12.17104463	      4.87467220	      2.16246584	     -3.09202491	     11.36671179	      2.69244026	      1.94317167	     20.58063774	     -8.23535094	     -9.80519744	    -31.18060845	      5.13211406	      0.31905405	     23.45263828	    -15.54448388	      4.93025275	      7.85947368
      3.04500000	      6.22450292	     -4.40519001	     -6.35648269	      0.43207855	      1.02045291	      0.05458449	    -12.58305717	      4.83590900	      2.21932995	     -2.98919881	     11.59803200	      2.80685224	      1.54961526	     20.31754632	     -8.23168976	     -9.72036320	    -29.35832354	      4.88845493	      0.66198690	     23.37852542	    -15.55667151	      4.92065958	      7.93473080
      3.05000000	      6.25031797	     -4.46948437	     -6.40962308	      0.43719888	      1.01989440	      0.05451490	    -12.99899412	      4.84098324	      2.22955020	     -2.88149774	     11.82115043	      2.91521286	      1.18417750	     20.06221026	     -8.24940286	     -9.58356620	    -27.54673044	      4.64751826	      1.06096968	     23.30872657	    -15.57119775	      4.95936506	      7.96744547
      3.05500000	      6.06873060	     -4.61223571	     -6.42117732	      0.44220810	      1.01896259	      0.05433773	    -13.17115882	      4.96494705	      2.25813719	     -2.81791876	     12.00034432	      2.91798330	      1.13916858	     20.08034205	     -8.35256227	     -9.32381149	    -25.81176305	      4.36454406	      1.42972235	     23.27282143	    -15.37471646	      5.12599693	      7.97982893
      3.06000000	      6.17196593	     -4.65531621	     -6.48172013	      0.44746662	      1.01848306	      0.05426223	    -13.68420700	      4.92995161	      2.23441884	     -2.69680821	     12.24025787	      3.12176275	      0.79015327	     19.66799432	     -8.35609753	     -9.29287093	    -23.93422539	      4.14084696	      1.98265768	     23.20682940	    -15.46235008	      5.12930692	      8.01158976
